Coordinates
version=1
nRows=4
nColumns=63
inDegrees=yes

Units are S.I. units (second, meters, Newtons, ...)
If the header above contains a line with 'inDegrees', this indicates whether rotational values are in degrees (yes) or radians (no).

endheader
time	pelvis_tilt	pelvis_list	pelvis_rotation	pelvis_tx	pelvis_ty	pelvis_tz	hip_flexion_r	hip_adduction_r	hip_rotation_r	knee_angle_r	knee_angle_r_beta	ankle_angle_r	subtalar_angle_r	mtp_angle_r	hip_flexion_l	hip_adduction_l	hip_rotation_l	knee_angle_l	knee_angle_l_beta	ankle_angle_l	subtalar_angle_l	mtp_angle_l	L5_S1_Flex_Ext	L5_S1_Lat_Bending	L5_S1_axial_rotation	L4_L5_Flex_Ext	L4_L5_Lat_Bending	L4_L5_axial_rotation	L3_L4_Flex_Ext	L3_L4_Lat_Bending	L3_L4_axial_rotation	L2_L3_Flex_Ext	L2_L3_Lat_Bending	L2_L3_axial_rotation	L1_L2_Flex_Ext	L1_L2_Lat_Bending	L1_L2_axial_rotation	L1_T12_Flex_Ext	L1_T12_Lat_Bending	L1_T12_axial_rotation	Abs_r3	Abs_r2	Abs_r1	Abs_t1	Abs_t2	neck_flexion	neck_bending	neck_rotation	arm_flex_r	arm_add_r	arm_rot_r	elbow_flex_r	pro_sup_r	wrist_flex_r	wrist_dev_r	arm_flex_l	arm_add_l	arm_rot_l	elbow_flex_l	pro_sup_l	wrist_flex_l	wrist_dev_l
      3.64200000	    -44.30289266	      0.50269327	     -2.73061289	     -0.24545582	      1.04528360	     -0.00664856	    110.03556216	     -4.88337992	     -0.06374894	     89.28412241	      1.55830191	     21.66258506	      5.41280119	      0.00000000	     85.08319565	     -7.97851903	      0.43798570	     79.68695569	      1.39079975	      8.76520149	      2.38831520	      0.00000000	     -0.05178463	     -0.06900304	      0.19780606	     -0.09616923	     -0.09177404	      0.21016894	     -0.08507696	     -0.16777399	      0.21016894	     -0.05918465	     -0.16777399	      0.17308030	     -0.04808720	     -0.14071100	      0.16071742	     -0.02958973	     -0.10688571	      0.14835454	     -0.36989240	     -0.78057620	      1.10013795	      0.00000000	      0.00000000	      0.00000000	      0.00000000	      0.00000000	     74.34554416	    -10.55521592	     22.15817344	     33.11693487	     37.31092476	      0.00000000	      4.99999866	     75.60096348	     -7.72604092	     21.71871032	     31.36354359	     45.14469605	      0.00000000	      4.99999866
      3.65000000	    -44.28827724	      0.66999506	     -1.96855412	     -0.24583994	      1.04487860	     -0.00778031	    108.57591647	     -5.52658699	      0.19158622	     85.96570284	      1.50038456	     20.34954472	      5.60221034	      0.00000000	     86.33199670	     -7.21512845	      0.69825705	     83.03102778	      1.44916482	      9.61328590	      2.37450145	      0.00000000	     -0.04983315	     -0.09627945	      0.05809939	     -0.09254515	     -0.12805167	      0.06173060	     -0.08187089	     -0.23409386	      0.06173060	     -0.05695431	     -0.23409386	      0.05083696	     -0.04627507	     -0.19633306	      0.04720575	     -0.02847466	     -0.14913687	      0.04357454	     -0.35595324	     -1.08913240	      0.32313136	      0.00000000	      0.00000000	      0.00000000	      0.00000000	      0.00000000	     74.33453394	    -10.49310341	     22.10810970	     33.12096383	     37.29370542	      0.00000000	      4.99999868	     75.73055291	     -7.74211023	     21.89083488	     31.27862342	     45.17735450	      0.00000000	      4.99999868
      3.65800000	    -44.28107056	      0.43738299	     -1.40494238	     -0.24614680	      1.04443384	     -0.00888584	    106.86911824	     -6.11589115	     -0.08712903	     82.51524208	      1.44016266	     18.72676583	      5.82870141	      0.00000000	     87.77623452	     -6.70646086	      1.29224053	     86.46405005	      1.50908236	     10.43136849	      2.49723116	      0.00000000	     -0.05033288	     -0.07002988	     -0.03576516	     -0.09347319	     -0.09313974	     -0.03800048	     -0.08269189	     -0.17027065	     -0.03800048	     -0.05752545	     -0.17027065	     -0.03129452	     -0.04673911	     -0.14280493	     -0.02905919	     -0.02876021	     -0.10847628	     -0.02682387	     -0.35952274	     -0.79219199	     -0.19891510	      0.00000000	      0.00000000	      0.00000000	      0.00000000	      0.00000000	     74.42917666	    -10.49900295	     21.94848882	     32.95473345	     37.25341614	      0.00000000	      4.99999871	     75.85115483	     -7.68629479	     22.23872765	     31.26015882	     45.24169231	      0.00000000	      4.99999871
      3.66700000	    -44.25789121	      0.26938498	     -0.80713425	     -0.24622289	      1.04393324	     -0.01009242	    105.04371870	     -6.75258383	     -0.40173237	     79.06396034	      1.37992643	     17.04895848	      5.84260013	      0.00000000	     89.25447270	     -6.06266700	      1.88031589	     89.84982419	      1.56817526	     11.34864031	      2.74251710	      0.00000000	     -0.05003951	     -0.04903172	     -0.13837769	     -0.09292837	     -0.06521219	     -0.14702630	     -0.08220991	     -0.11921573	     -0.14702630	     -0.05719015	     -0.11921573	     -0.12108048	     -0.04646669	     -0.09998549	     -0.11243187	     -0.02859257	     -0.07595014	     -0.10378327	     -0.35742720	     -0.55465664	     -0.76961521	      0.00000000	      0.00000000	      0.00000000	      0.00000000	      0.00000000	     74.51379853	    -10.50380421	     21.86721647	     32.87055061	     37.22080821	      0.00000000	      4.99999875	     75.87287988	     -7.68321453	     22.60450280	     31.34169649	     45.30860745	      0.00000000	      4.99999875
